<svg width="728" height="728" viewBox="0 0 728 728" fill="none" xmlns="http://www.w3.org/2000/svg">
<mask id="path-1-inside-1_300_577" fill="white">
<path d="M728 364C728 289.261 704.993 216.333 662.105 155.123C619.217 93.914 558.526 47.3905 488.278 21.8728L473.161 63.4874C534.865 85.9013 588.173 126.766 625.845 180.53C663.517 234.294 683.725 298.351 683.725 364H728Z"/>
</mask>
<path d="M728 364C728 289.261 704.993 216.333 662.105 155.123C619.217 93.914 558.526 47.3905 488.278 21.8728L473.161 63.4874C534.865 85.9013 588.173 126.766 625.845 180.53C663.517 234.294 683.725 298.351 683.725 364H728Z" stroke="white" stroke-width="84" mask="url(#path-1-inside-1_300_577)"/>
<mask id="path-2-inside-2_300_577" fill="white">
<path d="M644.372 243.931C619.718 186.362 577.941 137.779 524.716 104.779C471.49 71.7797 409.397 55.9643 346.871 59.4814L348.166 82.5092C405.964 79.2581 463.362 93.8775 512.562 124.382C561.763 154.886 600.381 199.795 623.17 253.01L644.372 243.931Z"/>
</mask>
<path d="M644.372 243.931C619.718 186.362 577.941 137.779 524.716 104.779C471.49 71.7797 409.397 55.9643 346.871 59.4814L348.166 82.5092C405.964 79.2581 463.362 93.8775 512.562 124.382C561.763 154.886 600.381 199.795 623.17 253.01L644.372 243.931Z" stroke="white" stroke-width="70.3846" mask="url(#path-2-inside-2_300_577)"/>
<mask id="path-3-inside-3_300_577" fill="white">
<path d="M244.985 83.1789C194.627 104.521 150.934 139.013 118.483 183.041C86.032 227.068 66.0175 279.012 60.5357 333.432C55.054 387.851 64.3067 442.743 87.3247 492.358C110.343 541.973 146.279 584.486 191.369 615.443L204.424 596.429C162.743 567.813 129.524 528.515 108.247 482.652C86.9696 436.788 78.4166 386.047 83.4838 335.743C88.551 285.439 107.052 237.423 137.049 196.725C167.046 156.026 207.435 124.143 253.985 104.415L244.985 83.1789Z"/>
</mask>
<path d="M244.985 83.1789C194.627 104.521 150.934 139.013 118.483 183.041C86.032 227.068 66.0175 279.012 60.5357 333.432C55.054 387.851 64.3067 442.743 87.3247 492.358C110.343 541.973 146.279 584.486 191.369 615.443L204.424 596.429C162.743 567.813 129.524 528.515 108.247 482.652C86.9696 436.788 78.4166 386.047 83.4838 335.743C88.551 285.439 107.052 237.423 137.049 196.725C167.046 156.026 207.435 124.143 253.985 104.415L244.985 83.1789Z" stroke="white" stroke-width="70.3846" mask="url(#path-3-inside-3_300_577)"/>
<mask id="path-4-inside-4_300_577" fill="white">
<path d="M243.823 644.326C294.093 665.877 349.233 673.513 403.468 666.436C457.703 659.358 509.036 637.826 552.092 604.097C595.148 570.367 628.341 525.679 648.195 474.716C668.05 423.752 673.834 368.387 664.943 314.42L642.186 318.169C650.404 368.055 645.057 419.233 626.705 466.343C608.352 513.453 577.668 554.761 537.869 585.94C498.069 617.12 450.617 637.023 400.483 643.565C350.35 650.108 299.38 643.049 252.911 623.127L243.823 644.326Z"/>
</mask>
<path d="M243.823 644.326C294.093 665.877 349.233 673.513 403.468 666.436C457.703 659.358 509.036 637.826 552.092 604.097C595.148 570.367 628.341 525.679 648.195 474.716C668.05 423.752 673.834 368.387 664.943 314.42L642.186 318.169C650.404 368.055 645.057 419.233 626.705 466.343C608.352 513.453 577.668 554.761 537.869 585.94C498.069 617.12 450.617 637.023 400.483 643.565C350.35 650.108 299.38 643.049 252.911 623.127L243.823 644.326Z" stroke="white" stroke-width="70.3846" mask="url(#path-4-inside-4_300_577)"/>
<mask id="path-5-inside-5_300_577" fill="white">
<path d="M467.179 602.651C509.975 584.148 547.009 554.478 574.4 516.747C601.792 479.017 618.534 434.615 622.872 388.192C627.21 341.77 618.986 295.035 599.059 252.882C579.133 210.73 548.238 174.711 509.611 148.599L490.06 177.521C523.501 200.127 550.247 231.309 567.498 267.802C584.749 304.294 591.87 344.754 588.114 384.944C584.358 425.134 569.864 463.574 546.15 496.238C522.436 528.902 490.375 554.589 453.325 570.607L467.179 602.651Z"/>
</mask>
<path d="M467.179 602.651C509.975 584.148 547.009 554.478 574.4 516.747C601.792 479.017 618.534 434.615 622.872 388.192C627.21 341.77 618.986 295.035 599.059 252.882C579.133 210.73 548.238 174.711 509.611 148.599L490.06 177.521C523.501 200.127 550.247 231.309 567.498 267.802C584.749 304.294 591.87 344.754 588.114 384.944C584.358 425.134 569.864 463.574 546.15 496.238C522.436 528.902 490.375 554.589 453.325 570.607L467.179 602.651Z" stroke="white" stroke-width="60" mask="url(#path-5-inside-5_300_577)"/>
<mask id="path-6-inside-6_300_577" fill="white">
<path d="M474.538 128.667C427.988 106.803 375.999 99.2341 325.148 106.919C274.296 114.604 226.866 137.198 188.856 171.842L212.373 197.643C245.279 167.65 286.341 148.09 330.364 141.437C374.388 134.784 419.396 141.336 459.696 160.265L474.538 128.667Z"/>
</mask>
<path d="M474.538 128.667C427.988 106.803 375.999 99.2341 325.148 106.919C274.296 114.604 226.866 137.198 188.856 171.842L212.373 197.643C245.279 167.65 286.341 148.09 330.364 141.437C374.388 134.784 419.396 141.336 459.696 160.265L474.538 128.667Z" stroke="white" stroke-width="60" mask="url(#path-6-inside-6_300_577)"/>
<mask id="path-7-inside-7_300_577" fill="white">
<path d="M115.613 287.163C104.412 323.373 101.263 361.594 106.387 399.149C111.511 436.704 124.784 472.685 145.276 504.57C165.769 536.456 192.985 563.475 225.018 583.736C257.051 603.997 293.127 617.009 330.718 621.861L335.187 587.238C302.643 583.038 271.411 571.773 243.679 554.233C215.947 536.692 192.385 513.3 174.644 485.696C156.903 458.092 145.412 426.942 140.976 394.43C136.54 361.917 139.266 328.828 148.963 297.48L115.613 287.163Z"/>
</mask>
<path d="M115.613 287.163C104.412 323.373 101.263 361.594 106.387 399.149C111.511 436.704 124.784 472.685 145.276 504.57C165.769 536.456 192.985 563.475 225.018 583.736C257.051 603.997 293.127 617.009 330.718 621.861L335.187 587.238C302.643 583.038 271.411 571.773 243.679 554.233C215.947 536.692 192.385 513.3 174.644 485.696C156.903 458.092 145.412 426.942 140.976 394.43C136.54 361.917 139.266 328.828 148.963 297.48L115.613 287.163Z" stroke="white" stroke-width="60" mask="url(#path-7-inside-7_300_577)"/>
<mask id="path-8-inside-8_300_577" fill="white">
<path d="M195.137 484.067C212.567 508.611 235.153 529.047 261.313 543.944C287.472 558.841 316.572 567.838 346.574 570.305C376.577 572.773 406.756 568.65 434.997 558.228C463.239 547.805 488.86 531.333 510.067 509.966L501.708 501.671C481.712 521.819 457.551 537.352 430.92 547.18C404.289 557.009 375.831 560.896 347.54 558.569C319.248 556.242 291.808 547.758 267.14 533.711C242.472 519.663 221.174 500.392 204.738 477.248L195.137 484.067Z"/>
</mask>
<path d="M195.137 484.067C212.567 508.611 235.153 529.047 261.313 543.944C287.472 558.841 316.572 567.838 346.574 570.305C376.577 572.773 406.756 568.65 434.997 558.228C463.239 547.805 488.86 531.333 510.067 509.966L501.708 501.671C481.712 521.819 457.551 537.352 430.92 547.18C404.289 557.009 375.831 560.896 347.54 558.569C319.248 556.242 291.808 547.758 267.14 533.711C242.472 519.663 221.174 500.392 204.738 477.248L195.137 484.067Z" stroke="white" stroke-width="47.6538" mask="url(#path-8-inside-8_300_577)"/>
<mask id="path-9-inside-9_300_577" fill="white">
<path d="M539.017 473.293C555.033 447.456 565.146 418.401 568.635 388.203C572.124 358.005 568.904 327.41 559.203 298.601L548.043 302.359C557.19 329.525 560.227 358.376 556.937 386.851C553.647 415.327 544.11 442.725 529.008 467.089L539.017 473.293Z"/>
</mask>
<path d="M539.017 473.293C555.033 447.456 565.146 418.401 568.635 388.203C572.124 358.005 568.904 327.41 559.203 298.601L548.043 302.359C557.19 329.525 560.227 358.376 556.937 386.851C553.647 415.327 544.11 442.725 529.008 467.089L539.017 473.293Z" stroke="white" stroke-width="47.6538" mask="url(#path-9-inside-9_300_577)"/>
<mask id="path-10-inside-10_300_577" fill="white">
<path d="M539.017 473.293C555.033 447.456 565.146 418.401 568.635 388.203C572.124 358.005 568.904 327.41 559.203 298.601L548.043 302.359C557.19 329.525 560.227 358.376 556.937 386.851C553.647 415.327 544.11 442.725 529.008 467.089L539.017 473.293Z"/>
</mask>
<path d="M539.017 473.293C555.033 447.456 565.146 418.401 568.635 388.203C572.124 358.005 568.904 327.41 559.203 298.601L548.043 302.359C557.19 329.525 560.227 358.376 556.937 386.851C553.647 415.327 544.11 442.725 529.008 467.089L539.017 473.293Z" stroke="white" stroke-width="47.6538" mask="url(#path-10-inside-10_300_577)"/>
<mask id="path-11-inside-11_300_577" fill="white">
<path d="M546.086 268.039C527.937 233.685 500.463 205.149 466.823 185.708C433.183 166.267 394.741 156.712 355.913 158.139L356.346 169.907C392.959 168.561 429.209 177.572 460.931 195.904C492.653 214.236 518.559 241.145 535.674 273.54L546.086 268.039Z"/>
</mask>
<path d="M546.086 268.039C527.937 233.685 500.463 205.149 466.823 185.708C433.183 166.267 394.741 156.712 355.913 158.139L356.346 169.907C392.959 168.561 429.209 177.572 460.931 195.904C492.653 214.236 518.559 241.145 535.674 273.54L546.086 268.039Z" stroke="white" stroke-width="47.6538" mask="url(#path-11-inside-11_300_577)"/>
<mask id="path-12-inside-12_300_577" fill="white">
<path d="M280.924 175.229C245.684 190.604 215.435 215.512 193.586 247.149C171.736 278.785 159.152 315.894 157.252 354.295L169.014 354.877C170.805 318.666 182.671 283.673 203.275 253.841C223.879 224.008 252.402 200.52 285.633 186.022L280.924 175.229Z"/>
</mask>
<path d="M280.924 175.229C245.684 190.604 215.435 215.512 193.586 247.149C171.736 278.785 159.152 315.894 157.252 354.295L169.014 354.877C170.805 318.666 182.671 283.673 203.275 253.841C223.879 224.008 252.402 200.52 285.633 186.022L280.924 175.229Z" stroke="white" stroke-width="47.6538" mask="url(#path-12-inside-12_300_577)"/>
<mask id="path-13-inside-13_300_577" fill="white">
<path d="M210.157 269.284C188.948 303.441 179.75 343.701 184.022 383.679C188.294 423.657 205.791 461.065 233.739 489.969L262.047 462.597C240.196 439.999 226.516 410.752 223.176 379.495C219.836 348.238 227.027 316.761 243.609 290.056L210.157 269.284Z"/>
</mask>
<path d="M210.157 269.284C188.948 303.441 179.75 343.701 184.022 383.679C188.294 423.657 205.791 461.065 233.739 489.969L262.047 462.597C240.196 439.999 226.516 410.752 223.176 379.495C219.836 348.238 227.027 316.761 243.609 290.056L210.157 269.284Z" stroke="white" stroke-width="41.6538" mask="url(#path-13-inside-13_300_577)"/>
<mask id="path-14-inside-14_300_577" fill="white">
<path d="M290.541 529.598C328.228 546.252 370.478 549.511 410.274 538.834C450.069 528.157 485.014 504.187 509.303 470.904C533.591 437.622 545.763 397.031 543.794 355.876C541.825 314.72 525.835 275.477 498.48 244.665L469.034 270.807C490.421 294.897 502.923 325.58 504.462 357.757C506.001 389.935 496.485 421.67 477.495 447.692C458.505 473.713 431.184 492.455 400.07 500.803C368.956 509.151 335.923 506.602 306.457 493.581L290.541 529.598Z"/>
</mask>
<path d="M290.541 529.598C328.228 546.252 370.478 549.511 410.274 538.834C450.069 528.157 485.014 504.187 509.303 470.904C533.591 437.622 545.763 397.031 543.794 355.876C541.825 314.72 525.835 275.477 498.48 244.665L469.034 270.807C490.421 294.897 502.923 325.58 504.462 357.757C506.001 389.935 496.485 421.67 477.495 447.692C458.505 473.713 431.184 492.455 400.07 500.803C368.956 509.151 335.923 506.602 306.457 493.581L290.541 529.598Z" stroke="white" stroke-width="41.6538" mask="url(#path-14-inside-14_300_577)"/>
<mask id="path-15-inside-15_300_577" fill="white">
<path d="M443.847 202.869C412.916 187.493 378.222 181.315 343.885 185.069C309.548 188.823 277.009 202.35 250.13 224.045L274.862 254.686C295.877 237.723 321.318 227.147 348.164 224.212C375.011 221.278 402.136 226.108 426.319 238.129L443.847 202.869Z"/>
</mask>
<path d="M443.847 202.869C412.916 187.493 378.222 181.315 343.885 185.069C309.548 188.823 277.009 202.35 250.13 224.045L274.862 254.686C295.877 237.723 321.318 227.147 348.164 224.212C375.011 221.278 402.136 226.108 426.319 238.129L443.847 202.869Z" stroke="white" stroke-width="41.6538" mask="url(#path-15-inside-15_300_577)"/>
<circle cx="363.5" cy="364.5" r="111.663" stroke="white" stroke-width="13.6731"/>
<circle cx="363.5" cy="364.5" r="85.2788" fill="#C4C4C4" stroke="white" stroke-width="10.4423"/>
<mask id="path-18-inside-16_300_577" fill="white">
<path d="M426.945 5.48378C367.005 -5.04012 305.382 -0.36735 247.714 19.0747C190.045 38.5167 138.172 72.1075 96.8379 116.775C55.504 161.442 26.029 215.759 11.1089 274.76C-3.81133 333.76 -3.70048 395.559 11.4313 454.506L54.3159 443.497C41.0247 391.721 40.9274 337.438 54.0327 285.614C67.1381 233.791 93.0279 186.08 129.334 146.846C165.64 107.612 211.204 78.1069 261.858 61.0297C312.512 43.9524 366.639 39.8481 419.289 49.0919L426.945 5.48378Z"/>
</mask>
<path d="M426.945 5.48378C367.005 -5.04012 305.382 -0.36735 247.714 19.0747C190.045 38.5167 138.172 72.1075 96.8379 116.775C55.504 161.442 26.029 215.759 11.1089 274.76C-3.81133 333.76 -3.70048 395.559 11.4313 454.506L54.3159 443.497C41.0247 391.721 40.9274 337.438 54.0327 285.614C67.1381 233.791 93.0279 186.08 129.334 146.846C165.64 107.612 211.204 78.1069 261.858 61.0297C312.512 43.9524 366.639 39.8481 419.289 49.0919L426.945 5.48378Z" stroke="white" stroke-width="84" mask="url(#path-18-inside-16_300_577)"/>
<mask id="path-19-inside-17_300_577" fill="white">
<path d="M75.3142 585.713C112.383 633.978 160.961 672.18 216.606 696.823C272.251 721.466 333.186 731.764 393.839 726.775C454.492 721.786 512.926 701.67 563.796 668.266C614.667 634.861 656.35 589.236 685.034 535.562L645.985 514.694C620.79 561.839 584.177 601.915 539.494 631.256C494.811 660.597 443.485 678.267 390.21 682.649C336.934 687.031 283.411 677.985 234.534 656.34C185.658 634.694 142.988 601.14 110.429 558.745L75.3142 585.713Z"/>
</mask>
<path d="M75.3142 585.713C112.383 633.978 160.961 672.18 216.606 696.823C272.251 721.466 333.186 731.764 393.839 726.775C454.492 721.786 512.926 701.67 563.796 668.266C614.667 634.861 656.35 589.236 685.034 535.562L645.985 514.694C620.79 561.839 584.177 601.915 539.494 631.256C494.811 660.597 443.485 678.267 390.21 682.649C336.934 687.031 283.411 677.985 234.534 656.34C185.658 634.694 142.988 601.14 110.429 558.745L75.3142 585.713Z" stroke="white" stroke-width="84" mask="url(#path-19-inside-17_300_577)"/>
</svg>
