<svg width="142" height="36" viewBox="0 0 142 36" fill="none" xmlns="http://www.w3.org/2000/svg">
<path d="M31.8704 10.6131C31.7827 12.1286 31.1689 13.5549 30.0727 14.6693L19.5496 25.3669C19.2865 25.6344 18.9796 25.9018 18.6288 26.1247C16.2173 27.7739 12.9288 27.4619 10.868 25.3669C9.59647 24.0743 8.93878 22.2468 9.11416 20.3747C9.15801 19.2603 10.0788 18.4134 11.1749 18.4134C12.3149 18.4134 13.2357 19.3495 13.2357 20.5084C13.2357 21.1324 12.9726 21.6673 12.578 22.0685C12.7096 22.4251 12.9288 22.7817 13.2357 23.0491C13.7619 23.584 14.5073 23.896 15.2527 23.896C15.735 23.896 16.1734 23.8069 16.568 23.584C16.8311 23.4503 17.0504 23.272 17.2696 23.0491L22.4435 17.7894L20.295 15.6053L17.2257 12.4851C16.6996 11.9503 15.9542 11.6382 15.2088 11.6382C14.4634 11.6382 13.718 11.9503 13.1919 12.4851C12.8411 12.8417 12.578 13.2875 12.4465 13.7332C12.9288 14.1344 13.2796 14.7138 13.2796 15.3824C13.2796 16.5413 12.3588 17.4774 11.2188 17.4774C10.1665 17.4774 9.2457 16.6305 9.15801 15.5607C8.80724 13.5549 9.42109 11.5491 10.868 10.0782C12.008 8.91926 13.5426 8.25065 15.2088 8.25065C16.8311 8.25065 18.4096 8.91926 19.5496 10.0782L22.6188 13.1983L24.7673 15.3824L27.7489 12.3514C28.3189 11.772 28.582 11.0588 28.582 10.2565C28.582 9.54329 28.3189 8.87468 27.8366 8.38437C26.565 6.95802 25.0304 5.84368 23.3204 5.04135C21.5227 4.23903 19.6373 3.79329 17.6642 3.79329C13.9811 3.79329 10.5611 5.26422 7.93031 7.89406C5.34337 10.5239 3.89644 14.0452 3.89644 17.7894C3.89644 21.5336 5.34337 25.0103 7.93031 27.6848C10.5172 30.3146 13.9811 31.7855 17.6642 31.7855C19.6373 31.7855 21.5227 31.3844 23.3204 30.5375C25.0304 29.7351 26.565 28.6208 27.8366 27.1944C28.845 26.0355 28.8012 24.2972 27.7489 23.1828L25.5566 20.9541L27.8804 18.5917L30.0727 20.8204C32.3966 23.1828 32.4843 26.927 30.292 29.4231C28.7135 31.2061 26.8281 32.5879 24.7235 33.5685C22.5312 34.5937 20.1635 35.084 17.7081 35.084C15.428 35.084 13.1919 34.6382 11.0872 33.7468C9.07031 32.8553 7.22877 31.6072 5.69414 30.0472C4.11567 28.4425 2.88797 26.615 2.05489 24.5646C1.17797 22.4251 0.739502 20.1518 0.739502 17.834C0.739502 15.5162 1.17797 13.2429 2.05489 11.1034C2.93182 9.05298 4.15952 7.18089 5.69414 5.62081C7.27261 4.01616 9.07031 2.7681 11.0872 1.9212C13.1919 1.02972 15.428 0.583988 17.7081 0.583988C20.1635 0.583988 22.4873 1.11887 24.7235 2.09949C26.8719 3.08011 28.7135 4.46189 30.292 6.24484C30.9497 7.00259 31.4758 7.93864 31.695 8.91926C31.8266 9.32042 31.8704 9.98902 31.8704 10.6131Z" fill="#7265E3"/>
<path d="M52.3118 15.0742C51.9785 14.5902 51.55 14.1545 51.0739 13.7673C50.5977 13.3801 50.1216 13.0897 49.5979 12.8477C49.0741 12.6057 48.5504 12.4121 47.979 12.2669C47.4077 12.1216 46.8363 12.0732 46.265 12.0732C45.5984 12.0732 44.8842 12.17 44.17 12.3637C43.5511 12.5573 42.9321 12.7993 42.3608 13.1381C41.2657 13.8157 40.3134 14.7838 39.6944 15.897C39.3612 16.4779 39.1231 17.1071 38.9326 17.7363C38.7422 18.4139 38.6946 19.0916 38.6946 19.7692C38.6946 20.4468 38.7898 21.1245 38.9803 21.8021C39.1707 22.4313 39.4088 23.0606 39.7897 23.6414C40.4562 24.7547 41.4085 25.7227 42.5512 26.4003C43.1226 26.7392 43.7415 27.0296 44.3605 27.1748C44.9794 27.3684 45.646 27.4652 46.3126 27.4652H46.3602C46.7887 27.4652 47.2649 27.4168 47.6934 27.32C48.1219 27.2232 48.5504 27.1264 48.9313 26.9812C49.3122 26.836 49.6931 26.6423 50.074 26.4003C50.4073 26.2067 50.7882 25.9647 51.0739 25.7227C51.2167 25.5775 51.3595 25.4323 51.5024 25.2871C51.6452 25.0935 51.6928 24.8999 51.7404 24.6579C51.7404 24.5126 51.6928 24.4158 51.6452 24.2706C51.5976 24.1738 51.55 24.077 51.5024 24.0286L51.3119 23.7866C51.2643 23.7382 51.2167 23.6414 51.1691 23.5446C51.0739 23.3994 50.9786 23.2542 50.8358 23.109C50.7406 22.9638 50.6453 22.867 50.5025 22.7702C50.3597 22.6734 50.2168 22.6249 50.074 22.6249H50.0264H49.9788C49.7883 22.6249 49.5979 22.6734 49.455 22.8186C49.3598 22.867 49.2646 22.9638 49.217 23.0122C49.0265 23.1574 48.8361 23.351 48.598 23.4962C48.4076 23.6414 48.1695 23.7866 47.979 23.8834C47.741 23.9802 47.5029 24.077 47.2172 24.1254C46.9316 24.1738 46.6459 24.2222 46.3126 24.2222H46.265C45.7889 24.2222 45.3127 24.1254 44.8842 23.9318C44.4081 23.7382 44.0272 23.4962 43.6463 23.1574C43.2654 22.8186 42.9321 22.4313 42.6464 21.9957C42.5036 21.7537 42.3608 21.5117 42.2655 21.2697H52.7403C53.3593 21.2697 53.7878 20.8341 53.7878 20.2048C53.8354 19.2368 53.6926 18.2203 53.4545 17.3007C53.264 16.5263 52.8355 15.7518 52.3118 15.0742ZM50.4549 18.1235H42.2655C42.4084 17.7847 42.5512 17.4943 42.7893 17.1555C43.1226 16.6715 43.5511 16.2358 44.0272 15.897C44.3605 15.655 44.789 15.5098 45.1699 15.413C45.5508 15.3162 45.9793 15.2678 46.4078 15.2678C46.9316 15.2678 47.4077 15.3646 47.8838 15.5098C48.3599 15.655 48.7885 15.897 49.1694 16.2358C49.5503 16.5263 49.8835 16.9135 50.1216 17.3491C50.2644 17.5911 50.3597 17.8331 50.4549 18.1235Z" fill="#2D3142"/>
<path d="M66.355 25.6256L60.832 18.9461L65.6885 13.8154C65.8313 13.6218 65.9265 13.3314 65.9265 13.1378C65.9265 12.9926 65.9265 12.8958 65.8789 12.799C65.8313 12.7022 65.7361 12.6054 65.6408 12.4601C65.4504 12.3149 65.2599 12.2665 65.0695 12.2665H63.4983C63.2602 12.2665 63.0698 12.3149 62.8793 12.4117C62.7365 12.5086 62.6413 12.6054 62.4984 12.7022L57.9276 17.6392V9.21719C57.9276 9.07199 57.9276 8.92678 57.8324 8.78157C57.7848 8.63636 57.6895 8.49116 57.5943 8.44276C57.4039 8.24915 57.1658 8.15234 56.8801 8.15234H55.785C55.6422 8.15234 55.4994 8.15234 55.3565 8.20075C55.2137 8.24915 55.0708 8.34595 54.9756 8.44276C54.7852 8.63637 54.6899 8.87838 54.6899 9.16879V26.0612C54.6899 26.2064 54.6899 26.3516 54.7376 26.4484C54.7852 26.5936 54.8804 26.7388 54.9756 26.8356C55.0708 26.9325 55.2137 27.0293 55.3565 27.0777C55.4517 27.1261 55.547 27.1261 55.6898 27.1261C55.7374 27.1261 55.7374 27.1261 55.785 27.1261H56.7849C57.4039 27.1261 57.8324 26.6904 57.8324 26.0612V22.0438L58.6418 21.221L62.9745 26.5452C63.0698 26.6904 63.165 26.884 63.3554 26.9809C63.5459 27.0777 63.7363 27.1745 63.9268 27.1745H65.7361C65.9265 27.1745 66.0694 27.1745 66.2122 27.0777L66.2598 27.0293C66.355 26.9809 66.6407 26.7872 66.6407 26.3516C66.6407 26.2548 66.6407 26.158 66.5931 26.0612C66.5931 25.916 66.4979 25.7708 66.355 25.6256Z" fill="#2D3142"/>
<path d="M79.5477 12.2664H78.5002C78.3573 12.2664 78.2145 12.2664 78.1193 12.3148C77.9764 12.3632 77.8336 12.46 77.7384 12.5568C77.6431 12.6536 77.5479 12.7988 77.5003 12.9441C77.4527 13.0893 77.4527 13.2345 77.4527 13.3313V13.3797C77.0242 13.0893 76.5957 12.7989 76.1195 12.6052C75.2149 12.218 74.2627 12.0244 73.3104 12.0244C73.2628 12.0244 73.2628 12.0244 73.2152 12.0244C72.5486 12.0244 71.882 12.1212 71.2154 12.3148C70.5965 12.5084 69.9775 12.7504 69.4062 13.0893C68.8348 13.4281 68.3111 13.8153 67.8826 14.2993C67.4064 14.7833 67.0255 15.2674 66.6923 15.8482C66.359 16.429 66.0733 17.0583 65.9305 17.6875C65.5496 19.0428 65.5496 20.4464 65.9305 21.7533C66.1209 22.3825 66.359 23.0117 66.6923 23.5926C67.3588 24.7058 68.3111 25.6739 69.4062 26.3515C69.9775 26.6903 70.5965 26.9807 71.2154 27.1259C71.882 27.3196 72.5486 27.4164 73.2152 27.4164C73.2628 27.4164 73.2628 27.4164 73.3104 27.4164C74.2627 27.4164 75.2149 27.2227 76.1195 26.8355C76.5957 26.6419 77.0242 26.3515 77.4527 26.0611V26.1579C77.4527 26.3031 77.4527 26.4483 77.5479 26.5935C77.5955 26.7387 77.6908 26.8355 77.786 26.9323C77.8812 27.0291 78.024 27.1259 78.1669 27.1743C78.3097 27.2227 78.4526 27.2711 78.5478 27.2227H79.6429C79.9286 27.2227 80.1666 27.1259 80.3571 26.9323C80.4523 26.8355 80.5475 26.6903 80.5951 26.5451C80.6427 26.3999 80.6904 26.2547 80.6427 26.1579V13.3313C80.6427 12.9441 80.4999 12.702 80.3571 12.5568C80.2142 12.4116 79.9762 12.2664 79.5477 12.2664ZM77.5003 19.672C77.5003 20.2528 77.4051 20.8336 77.167 21.4145C76.929 21.9469 76.6433 22.4309 76.2148 22.8665C75.8339 23.3022 75.3577 23.641 74.834 23.883C74.3103 24.125 73.7389 24.2702 73.1676 24.2702C72.5962 24.2702 72.0249 24.125 71.5487 23.883C71.025 23.641 70.5965 23.3022 70.168 22.8665C69.7871 22.4309 69.4538 21.9469 69.2633 21.4145C68.8348 20.3012 68.8348 19.0912 69.2633 17.9779C69.5014 17.4455 69.7871 16.9615 70.168 16.5258C70.5489 16.0902 71.025 15.7998 71.5487 15.5578C72.0725 15.3158 72.6438 15.1706 73.1676 15.1706C73.7389 15.1706 74.3103 15.3158 74.834 15.5578C75.3577 15.7998 75.8339 16.1386 76.2148 16.5258C76.5957 16.9615 76.929 17.4455 77.167 17.9779C77.4051 18.5103 77.5003 19.0912 77.5003 19.672Z" fill="#2D3142"/>
<path d="M99.7309 24.2221C99.6833 24.1737 99.6357 24.0769 99.588 24.0285L99.1119 23.3993C99.0643 23.3025 98.9691 23.2057 98.9215 23.1089C98.8262 22.9152 98.6358 22.8184 98.3977 22.7216C98.2073 22.6732 98.0168 22.6732 97.8264 22.7216C97.6835 22.77 97.5883 22.8184 97.4455 22.9152L97.3026 23.0605C97.1122 23.2057 96.9217 23.3993 96.6837 23.5445C96.4932 23.6897 96.2552 23.8349 96.0647 23.9317C95.8267 24.0285 95.5886 24.1253 95.3029 24.1737C95.0172 24.2221 94.7316 24.2705 94.3983 24.2705H94.3507C93.8269 24.2705 93.2556 24.1253 92.7795 23.9317C92.2557 23.6897 91.7796 23.3509 91.3987 22.9636C90.9702 22.528 90.6845 22.044 90.4464 21.5116C90.2084 20.9792 90.1131 20.3983 90.1131 19.7691C90.1131 19.1883 90.256 18.559 90.4941 18.0266C90.7321 17.4942 91.0654 16.9618 91.4463 16.5745C91.8272 16.1389 92.3033 15.8001 92.8271 15.5581C93.3032 15.3161 93.8745 15.1709 94.3983 15.1709C94.684 15.1709 94.922 15.2193 95.2077 15.2677C95.7314 15.3645 96.2552 15.6065 96.6837 15.8969C96.8741 16.0421 97.0646 16.1873 97.255 16.3809C97.4931 16.6229 97.7788 16.7682 98.0644 16.7682C98.2549 16.7682 98.5406 16.6713 98.7786 16.3325L99.588 15.2677C99.7309 15.0741 99.7309 14.8321 99.7309 14.6384C99.7309 14.4932 99.6357 14.2996 99.5404 14.1544C99.4452 14.0576 99.35 13.9608 99.2548 13.864L99.0643 13.7188C98.7786 13.4768 98.4453 13.2832 98.1121 13.0896C97.7312 12.896 97.3979 12.7024 97.017 12.5571C96.6361 12.4119 96.2076 12.3151 95.779 12.2183C95.3505 12.1215 94.922 12.0731 94.4935 12.1215C93.8269 12.1215 93.1604 12.2183 92.4938 12.4119C91.8748 12.6056 91.2558 12.8476 90.6845 13.1864C89.5418 13.864 88.6372 14.8321 87.923 15.9453C87.5897 16.5261 87.304 17.1554 87.1136 17.7846C86.7327 19.1399 86.7327 20.5435 87.1136 21.8504C87.304 22.4796 87.5421 23.1089 87.923 23.6897C88.5895 24.8029 89.5418 25.771 90.6845 26.4486C91.2558 26.7874 91.8748 27.0778 92.4938 27.2231C93.1604 27.4167 93.7793 27.5135 94.4459 27.5135H94.4935C94.922 27.5135 95.3981 27.4651 95.8267 27.3683C96.2552 27.2715 96.6837 27.1747 97.0646 27.0294C97.4455 26.8842 97.8264 26.6906 98.2073 26.4486C98.5406 26.255 98.8739 26.013 99.2071 25.771C99.35 25.6742 99.4928 25.529 99.588 25.3838C99.6833 25.2386 99.7785 25.0934 99.8261 24.9481C99.8737 24.7545 99.8737 24.5609 99.8261 24.4157L99.7309 24.2221Z" fill="#7265E3"/>
<path d="M114.018 12.2664H112.97C112.828 12.2664 112.685 12.2664 112.59 12.3148C112.447 12.3632 112.304 12.46 112.209 12.5568C112.113 12.6536 112.018 12.7988 111.971 12.9441C111.923 13.0893 111.923 13.2345 111.923 13.3313V13.3797C111.494 13.0893 111.066 12.7989 110.59 12.6052C109.685 12.218 108.733 12.0244 107.733 12.0244C107.066 12.0244 106.4 12.1212 105.733 12.3148C105.114 12.5084 104.495 12.7504 103.924 13.0893C103.353 13.4281 102.829 13.8153 102.4 14.2993C101.924 14.7833 101.543 15.2674 101.21 15.8482C100.877 16.429 100.639 17.0583 100.448 17.6875C100.067 19.0428 100.067 20.4464 100.448 21.7533C100.972 23.6894 102.258 25.3351 103.924 26.3515C104.495 26.6903 105.114 26.9807 105.733 27.1259C106.4 27.3196 107.066 27.4164 107.733 27.4164C107.781 27.4164 107.781 27.4164 107.828 27.4164C108.78 27.4164 109.733 27.2227 110.637 26.8355C111.114 26.6419 111.542 26.3515 111.971 26.0611V26.1579C111.971 26.3031 111.971 26.4483 112.066 26.5935C112.113 26.7387 112.209 26.8355 112.304 26.9323C112.399 27.0291 112.542 27.1259 112.685 27.1743C112.828 27.2227 112.97 27.2711 113.066 27.2227H114.161C114.446 27.2227 114.684 27.1259 114.875 26.9323C114.97 26.8355 115.065 26.6903 115.113 26.5451C115.161 26.3999 115.208 26.2547 115.208 26.1579V13.3313C115.208 12.9441 115.065 12.702 114.923 12.5568C114.684 12.4116 114.446 12.2664 114.018 12.2664ZM112.018 19.672C112.018 20.2528 111.923 20.8336 111.685 21.4145C111.447 21.9469 111.161 22.4793 110.733 22.8665C110.352 23.3022 109.876 23.641 109.352 23.883C108.828 24.125 108.257 24.2702 107.685 24.2702C107.114 24.2702 106.543 24.125 106.067 23.883C105.543 23.641 105.114 23.3022 104.686 22.8665C104.305 22.4309 103.972 21.9469 103.781 21.4145C103.353 20.3012 103.353 19.0912 103.781 17.9779C104.019 17.4455 104.305 16.9615 104.686 16.5258C105.067 16.0902 105.543 15.7998 106.067 15.5578C106.59 15.3158 107.162 15.1706 107.685 15.1706C108.257 15.1706 108.828 15.3158 109.352 15.5578C109.876 15.7998 110.352 16.1386 110.733 16.5258C111.114 16.9615 111.447 17.4455 111.685 17.9779C111.875 18.5103 112.018 19.0912 112.018 19.672Z" fill="#7265E3"/>
<path d="M126.443 14.2997C126.443 14.1545 126.395 14.0093 126.347 13.8641C126.3 13.7189 126.205 13.6221 126.109 13.5253C126.014 13.4285 125.919 13.3317 125.776 13.2833C125.49 13.0897 125.205 12.8961 124.872 12.7025C124.586 12.5573 124.3 12.4121 123.967 12.3153C123.634 12.2184 123.3 12.17 122.967 12.1216C122.586 12.0732 122.205 12.0732 121.872 12.0732C121.443 12.0732 121.062 12.1216 120.682 12.2669C120.348 12.4121 120.063 12.5573 119.777 12.7509C119.729 12.7993 119.682 12.8477 119.634 12.8477C119.587 12.7509 119.539 12.6541 119.444 12.5573C119.348 12.4605 119.206 12.3637 119.063 12.3153C118.92 12.2669 118.777 12.2184 118.682 12.2669H117.587C117.444 12.2669 117.301 12.2669 117.206 12.3637C117.063 12.4121 116.968 12.5089 116.873 12.5573C116.777 12.6541 116.682 12.7993 116.635 12.9445C116.587 13.0897 116.539 13.2349 116.539 13.3317V26.1583C116.539 26.7876 116.968 27.2232 117.587 27.2232H118.682C118.729 27.2232 118.729 27.2232 118.777 27.2232C118.872 27.2232 119.015 27.2232 119.11 27.1748C119.253 27.1264 119.396 27.0296 119.491 26.9328C119.587 26.836 119.682 26.6907 119.729 26.5455C119.777 26.4003 119.777 26.2551 119.777 26.1583V17.6879C119.777 17.3007 119.825 16.9619 119.967 16.6231C120.063 16.3326 120.253 16.0906 120.444 15.8486C120.634 15.655 120.872 15.5098 121.11 15.3646C121.348 15.2678 121.634 15.2194 121.92 15.2194C122.3 15.2194 122.681 15.2678 123.062 15.413C123.491 15.5582 123.872 15.7518 124.205 15.9938L124.348 16.0906C124.491 16.2358 124.681 16.2842 124.919 16.2842C125.062 16.2842 125.205 16.2358 125.3 16.139C125.443 16.0422 125.538 15.9454 125.633 15.8486L126.3 14.7838C126.395 14.6386 126.443 14.4934 126.443 14.2997Z" fill="#7265E3"/>
<path d="M140.918 17.3487C140.68 16.5258 140.346 15.703 139.823 15.0254C139.442 14.5413 139.061 14.1057 138.585 13.7185C138.108 13.3313 137.632 13.0409 137.109 12.7989C136.585 12.5568 136.061 12.3632 135.49 12.218C134.918 12.0728 134.347 12.0244 133.776 12.0244H133.728C133.062 12.0244 132.347 12.1212 131.681 12.3148C131.062 12.5084 130.443 12.7504 129.871 13.0893C129.3 13.4281 128.776 13.8153 128.348 14.2993C127.443 15.2674 126.777 16.429 126.443 17.6875C126.253 18.3651 126.205 19.0428 126.205 19.7204C126.205 20.398 126.301 21.1241 126.491 21.7533C126.681 22.3825 126.92 23.0117 127.253 23.5926C127.586 24.1734 128.015 24.7058 128.443 25.1414C128.919 25.6255 129.443 26.0127 129.967 26.3515C130.538 26.6903 131.157 26.9807 131.776 27.1259C132.443 27.3196 133.062 27.4164 133.728 27.4164C133.728 27.4164 133.728 27.4164 133.776 27.4164C134.252 27.4164 134.68 27.368 135.109 27.2712C135.537 27.1743 135.966 27.0775 136.347 26.9323C136.728 26.7871 137.109 26.5935 137.49 26.3515C137.823 26.1579 138.156 25.9159 138.489 25.6739C138.632 25.5287 138.823 25.3835 138.918 25.2383C139.061 25.093 139.108 24.8994 139.108 24.609C139.108 24.4638 139.061 24.367 139.013 24.2218C138.966 24.125 138.918 24.0282 138.87 23.9798L138.727 23.7862C138.68 23.7378 138.632 23.641 138.537 23.5442L138.204 23.1085C138.156 23.0117 138.061 22.9149 137.966 22.8665C137.87 22.7697 137.728 22.7213 137.585 22.6729C137.442 22.6245 137.299 22.6245 137.204 22.6729C137.061 22.7213 136.966 22.7697 136.871 22.8181C136.775 22.8665 136.68 22.9633 136.632 23.0117C136.442 23.157 136.252 23.3506 136.014 23.4958C135.823 23.641 135.585 23.7862 135.395 23.883C135.157 23.9798 134.918 24.0766 134.633 24.125C134.347 24.1734 134.014 24.2218 133.728 24.2218H133.681C133.204 24.2218 132.728 24.125 132.3 23.9314C131.824 23.7378 131.443 23.4958 131.062 23.157C130.681 22.8181 130.348 22.4309 130.11 21.9953C129.967 21.7533 129.824 21.5113 129.729 21.2693H140.203C140.822 21.2693 141.251 20.8336 141.251 20.2044C141.299 19.2848 141.156 18.3167 140.918 17.3487ZM137.918 18.1231H129.729C129.871 17.7843 130.014 17.4939 130.252 17.1551C130.586 16.671 131.014 16.2354 131.49 15.8966C131.824 15.6546 132.205 15.5094 132.633 15.4126C133.014 15.3158 133.442 15.2674 133.871 15.2674C134.395 15.2674 134.871 15.3642 135.347 15.5094C135.823 15.6546 136.252 15.8966 136.632 16.2354C137.013 16.5258 137.347 16.9131 137.585 17.3487C137.68 17.5907 137.823 17.8327 137.918 18.1231Z" fill="#7265E3"/>
<path d="M84.8768 23.5935C84.5435 23.4482 84.1626 23.3998 83.7817 23.4967C83.4008 23.5935 83.0675 23.7387 82.7819 24.0291C82.4962 24.3195 82.3057 24.6583 82.2581 25.0455C82.1629 25.578 82.2581 26.062 82.5438 26.4976C82.8295 26.9332 83.258 27.2236 83.7341 27.3204C83.877 27.3688 83.9722 27.3688 84.115 27.3688C84.3531 27.3688 84.5911 27.3204 84.8292 27.2236C85.1625 27.0784 85.4958 26.8364 85.6862 26.4976C85.8767 26.1588 86.0195 25.82 86.0195 25.4327C86.0195 25.0455 85.9243 24.6583 85.6862 24.3679C85.5434 23.9807 85.2577 23.7387 84.8768 23.5935Z" fill="#2D3142"/>
</svg>
